# xmcd
#
# Track frame offsets: 
#        300
#        19995
#        33895
#        51949
#        69658
#        86567
#        101549
#        115279
#        146366
#        163752
#        186159
#        204473
#        221635
#        242909
#
# Disc length: 3519 seconds
#
# Revision: 1
# Processed by: cddbd v1.5.2PL0 Copyright (c) Steve Scherf et al.
# Submitted via: ExactAudioCopy v1.0b1
#
DISCID=cb0dbb0e
DTITLE=Chris Thomas King and Blind Mississippi Morris - Along The Blues 
DTITLE=Highway
DYEAR=2001
DGENRE=Blues
TTITLE0=Red Mud
TTITLE1=Why
TTITLE2=Soon This Morning Blues
TTITLE3=I'm On Fire
TTITLE4=Alive
TTITLE5=Me, My Guitar And The Blues
TTITLE6=O Brother Where Art Thou
TTITLE7=Dust My Broom
TTITLE8=You Know I Like That
TTITLE9=Willie
TTITLE10=Beale Street Tonight
TTITLE11=Bad To Worse
TTITLE12=Night Roads
TTITLE13=Going Back to Louisiana
EXTD=YEAR: 2003
EXTT0=
EXTT1=
EXTT2=
EXTT3=
EXTT4=
EXTT5=
EXTT6=
EXTT7=
EXTT8=
EXTT9=
EXTT10=
EXTT11=
EXTT12=
EXTT13=
PLAYORDER=
